<svg width="17" height="16" viewBox="0 0 17 16" fill="none" xmlns="http://www.w3.org/2000/svg">
<path d="M14.2526 10.6656C14.2007 10.6031 14.1498 10.5406 14.0998 10.4803C13.4123 9.64875 12.9964 9.14688 12.9964 6.79282C12.9964 5.57407 12.7048 4.57407 12.1301 3.82407C11.7064 3.27001 11.1335 2.84969 10.3785 2.53907C10.3688 2.53366 10.3601 2.52658 10.3529 2.51813C10.0814 1.60876 9.33823 0.999695 8.5001 0.999695C7.66198 0.999695 6.91916 1.60876 6.6476 2.51719C6.64035 2.52533 6.6318 2.53219 6.62229 2.53751C4.86041 3.26282 4.00417 4.65438 4.00417 6.79188C4.00417 9.14688 3.58885 9.64875 2.90073 10.4794C2.85073 10.5397 2.79979 10.6009 2.74792 10.6647C2.61392 10.8263 2.52902 11.0229 2.50326 11.2312C2.47751 11.4396 2.51198 11.651 2.6026 11.8403C2.79542 12.2466 3.20635 12.4988 3.67542 12.4988H13.3282C13.7951 12.4988 14.2032 12.2469 14.3967 11.8425C14.4877 11.6531 14.5225 11.4416 14.4969 11.233C14.4714 11.0244 14.3866 10.8275 14.2526 10.6656Z" fill="#4FD1C5"/>
<path d="M8.50001 14.9999C8.95159 14.9996 9.39464 14.877 9.78219 14.6452C10.1697 14.4134 10.4873 14.0811 10.7013 13.6834C10.7113 13.6643 10.7163 13.643 10.7157 13.6214C10.7151 13.5999 10.7089 13.5788 10.6978 13.5604C10.6867 13.5419 10.671 13.5267 10.6522 13.5161C10.6334 13.5055 10.6122 13.4999 10.5906 13.4999H6.41002C6.38843 13.4999 6.36719 13.5054 6.34837 13.5159C6.32955 13.5265 6.31379 13.5418 6.30262 13.5603C6.29145 13.5787 6.28525 13.5998 6.28463 13.6213C6.28401 13.6429 6.28899 13.6643 6.29908 13.6834C6.51299 14.081 6.83053 14.4133 7.21802 14.6451C7.6055 14.8769 8.04849 14.9995 8.50001 14.9999Z" fill="#4FD1C5"/>
</svg>
