<svg width="12" height="13" viewBox="0 0 12 13" fill="none" xmlns="http://www.w3.org/2000/svg">
<path d="M10.3144 8.49923C10.2755 8.45236 10.2373 8.40549 10.1998 8.36025C9.68414 7.73658 9.37219 7.36017 9.37219 5.59463C9.37219 4.68057 9.15352 3.93057 8.7225 3.36807C8.40469 2.95252 7.97508 2.63729 7.40883 2.40432C7.40155 2.40026 7.39504 2.39495 7.38961 2.38861C7.18594 1.70658 6.6286 1.24979 6.00001 1.24979C5.37141 1.24979 4.8143 1.70658 4.61063 2.38791C4.6052 2.39401 4.59878 2.39916 4.59165 2.40314C3.27024 2.94713 2.62805 3.9908 2.62805 5.59392C2.62805 7.36017 2.31657 7.73658 1.80048 8.35955C1.76298 8.40478 1.72477 8.45072 1.68587 8.49853C1.58537 8.61973 1.52169 8.76719 1.50238 8.92345C1.48306 9.07971 1.50892 9.23823 1.57688 9.38025C1.72149 9.68494 2.0297 9.87408 2.38149 9.87408H9.6211C9.97125 9.87408 10.2773 9.68517 10.4224 9.38189C10.4907 9.23983 10.5168 9.08118 10.4976 8.92474C10.4785 8.76831 10.4149 8.62064 10.3144 8.49923V8.49923Z" fill="#718096"/>
<path d="M5.99996 11.75C6.33864 11.7497 6.67093 11.6578 6.96159 11.4839C7.25225 11.3101 7.49044 11.0608 7.65089 10.7626C7.65845 10.7483 7.66219 10.7323 7.66173 10.7161C7.66128 10.6999 7.65665 10.6842 7.6483 10.6703C7.63995 10.6565 7.62816 10.645 7.61408 10.6371C7.59999 10.6291 7.58409 10.625 7.56792 10.625H4.43246C4.41627 10.6249 4.40034 10.6291 4.38622 10.637C4.37211 10.6449 4.36029 10.6564 4.35191 10.6702C4.34353 10.6841 4.33888 10.6999 4.33842 10.716C4.33795 10.7322 4.34169 10.7483 4.34926 10.7626C4.50969 11.0608 4.74784 11.31 5.03846 11.4839C5.32907 11.6577 5.66132 11.7497 5.99996 11.75Z" fill="#718096"/>
</svg>
