<svg width="17" height="17" viewBox="0 0 17 17" fill="none" xmlns="http://www.w3.org/2000/svg">
<path d="M5.99997 14.4999C6.55225 14.4999 6.99997 14.0522 6.99997 13.4999C6.99997 12.9476 6.55225 12.4999 5.99997 12.4999C5.44768 12.4999 4.99997 12.9476 4.99997 13.4999C4.99997 14.0522 5.44768 14.4999 5.99997 14.4999Z" fill="#4299E1"/>
<path d="M13 14.4999C13.5523 14.4999 14 14.0522 14 13.4999C14 12.9476 13.5523 12.4999 13 12.4999C12.4477 12.4999 12 12.9476 12 13.4999C12 14.0522 12.4477 14.4999 13 14.4999Z" fill="#4299E1"/>
<path d="M14.775 4.2745C14.7048 4.18857 14.6163 4.11937 14.5159 4.07191C14.4156 4.02445 14.306 3.99993 14.195 4.00012H4.68406L4.4925 2.91325C4.47207 2.79747 4.41151 2.6926 4.32144 2.61705C4.23137 2.5415 4.11756 2.5001 4 2.50012H2C1.86739 2.50012 1.74021 2.5528 1.64645 2.64657C1.55268 2.74034 1.5 2.86751 1.5 3.00012C1.5 3.13273 1.55268 3.25991 1.64645 3.35368C1.74021 3.44744 1.86739 3.50012 2 3.50012H3.58062L5.0075 11.587C5.02793 11.7028 5.08849 11.8076 5.17856 11.8832C5.26863 11.9587 5.38244 12.0001 5.5 12.0001H13.5C13.6326 12.0001 13.7598 11.9474 13.8536 11.8537C13.9473 11.7599 14 11.6327 14 11.5001C14 11.3675 13.9473 11.2403 13.8536 11.1466C13.7598 11.0528 13.6326 11.0001 13.5 11.0001H5.91937L5.74312 10.0001H13.295C13.4684 9.9999 13.6364 9.93978 13.7706 9.82993C13.9047 9.72008 13.9968 9.56725 14.0312 9.39731L14.9312 4.89731C14.9529 4.7884 14.9502 4.67604 14.9231 4.56834C14.8961 4.46063 14.8455 4.36027 14.775 4.2745Z" fill="#4299E1"/>
</svg>
