<svg width="15" height="16" viewBox="0 0 15 16" fill="none" xmlns="http://www.w3.org/2000/svg">
<g clip-path="url(#clip0_1_1044)">
<path d="M13.7567 4.03136C13.723 3.96571 13.6742 3.90896 13.6144 3.86574C13.5545 3.82251 13.4853 3.79403 13.4124 3.7826C13.3395 3.77118 13.2649 3.77715 13.1947 3.80001C13.1245 3.82287 13.0607 3.86199 13.0085 3.91417L11.2085 5.71534C11.1201 5.80242 11.0011 5.85123 10.877 5.85123C10.753 5.85123 10.6339 5.80242 10.5455 5.71534L9.76739 4.93604C9.72385 4.89252 9.68932 4.84084 9.66575 4.78396C9.64219 4.72708 9.63006 4.66612 9.63006 4.60455C9.63006 4.54298 9.64219 4.48202 9.66575 4.42514C9.68932 4.36826 9.72385 4.31659 9.76739 4.27306L11.5598 2.48038C11.6135 2.42666 11.6534 2.36068 11.6759 2.28812C11.6985 2.21557 11.7031 2.13861 11.6893 2.06389C11.6755 1.98917 11.6438 1.91892 11.5968 1.85918C11.5499 1.79945 11.4891 1.75203 11.4197 1.72101V1.72101C10.0659 1.11573 8.37608 1.43155 7.31056 2.48917C6.40528 3.388 6.13546 4.79249 6.57081 6.34259C6.59428 6.42525 6.59442 6.51279 6.5712 6.59553C6.54798 6.67826 6.50232 6.75296 6.43927 6.81134L1.56193 11.2659C1.37192 11.4365 1.21866 11.644 1.11149 11.8758C1.00433 12.1076 0.945505 12.3588 0.938612 12.6141C0.93172 12.8693 0.976902 13.1233 1.0714 13.3605C1.1659 13.5978 1.30774 13.8132 1.48827 13.9938C1.66879 14.1745 1.88422 14.3164 2.1214 14.411C2.35858 14.5056 2.61256 14.5509 2.86782 14.5441C3.12309 14.5373 3.3743 14.4786 3.60612 14.3716C3.83795 14.2645 4.04554 14.1113 4.21622 13.9214L8.71856 9.03321C8.7761 8.97097 8.84954 8.92561 8.93095 8.90202C9.01236 8.87843 9.09867 8.87749 9.18058 8.89932C9.62189 9.02024 10.0771 9.08298 10.5347 9.08595C11.5132 9.08595 12.3719 8.76925 12.9912 8.15899C14.1382 7.02901 14.3131 5.11241 13.7567 4.03136ZM2.91515 13.6006C2.7222 13.6217 2.52747 13.5823 2.35783 13.488C2.1882 13.3937 2.05202 13.249 1.96809 13.074C1.88417 12.899 1.85663 12.7022 1.88928 12.5109C1.92194 12.3196 2.01317 12.1431 2.15039 12.0058C2.28761 11.8686 2.46406 11.7773 2.65538 11.7445C2.84669 11.7118 3.04345 11.7393 3.21849 11.8232C3.39354 11.907 3.53823 12.0431 3.63262 12.2128C3.727 12.3824 3.76641 12.5771 3.74542 12.77C3.72232 12.9823 3.62743 13.1804 3.47645 13.3314C3.32547 13.4825 3.12745 13.5774 2.91515 13.6006V13.6006Z" fill="#4FD1C5"/>
</g>
<defs>
<clipPath id="clip0_1_1044">
<rect width="15" height="15" fill="white" transform="translate(6.10352e-05 0.499939)"/>
</clipPath>
</defs>
</svg>
