<svg width="15" height="16" viewBox="0 0 15 16" fill="none" xmlns="http://www.w3.org/2000/svg">
<g clip-path="url(#clip0_1_1048)">
<path d="M0.9375 11.5152C0.9375 11.9503 1.11035 12.3676 1.41803 12.6753C1.7257 12.983 2.143 13.1559 2.57812 13.1559H12.4219C12.857 13.1559 13.2743 12.983 13.582 12.6753C13.8896 12.3676 14.0625 11.9503 14.0625 11.5152V7.00351H0.9375V11.5152ZM2.87109 9.28867C2.87109 9.05557 2.96369 8.83201 3.12852 8.66719C3.29335 8.50236 3.5169 8.40976 3.75 8.40976H5.15625C5.38935 8.40976 5.6129 8.50236 5.77773 8.66719C5.94256 8.83201 6.03515 9.05557 6.03515 9.28867V9.8746C6.03515 10.1077 5.94256 10.3313 5.77773 10.4961C5.6129 10.6609 5.38935 10.7535 5.15625 10.7535H3.75C3.5169 10.7535 3.29335 10.6609 3.12852 10.4961C2.96369 10.3313 2.87109 10.1077 2.87109 9.8746V9.28867Z" fill="#4FD1C5"/>
<path d="M12.4219 2.84299H2.57812C2.143 2.84299 1.7257 3.01584 1.41803 3.32351C1.11035 3.63119 0.9375 4.04849 0.9375 4.48361V5.24533H14.0625V4.48361C14.0625 4.04849 13.8896 3.63119 13.582 3.32351C13.2743 3.01584 12.857 2.84299 12.4219 2.84299V2.84299Z" fill="#4FD1C5"/>
</g>
<defs>
<clipPath id="clip0_1_1048">
<rect width="15" height="15" fill="white" transform="translate(6.10352e-05 0.500031)"/>
</clipPath>
</defs>
</svg>
