<svg width="23" height="23" viewBox="0 0 23 23" fill="none" xmlns="http://www.w3.org/2000/svg">
<path d="M7.98431 19.9373C8.76096 19.9373 9.39056 19.3077 9.39056 18.5311C9.39056 17.7544 8.76096 17.1248 7.98431 17.1248C7.20766 17.1248 6.57806 17.7544 6.57806 18.5311C6.57806 19.3077 7.20766 19.9373 7.98431 19.9373Z" fill="white"/>
<path d="M17.8281 19.9373C18.6048 19.9373 19.2344 19.3077 19.2344 18.5311C19.2344 17.7544 18.6048 17.1248 17.8281 17.1248C17.0515 17.1248 16.4219 17.7544 16.4219 18.5311C16.4219 19.3077 17.0515 19.9373 17.8281 19.9373Z" fill="white"/>
<path d="M20.3242 5.55786C20.2254 5.43703 20.101 5.33972 19.9599 5.27298C19.8188 5.20624 19.6647 5.17175 19.5086 5.17202H6.13384L5.86445 3.6436C5.83573 3.4808 5.75056 3.33332 5.6239 3.22707C5.49724 3.12083 5.33719 3.06261 5.17187 3.06264H2.35937C2.17289 3.06264 1.99405 3.13672 1.86219 3.26859C1.73033 3.40045 1.65625 3.57929 1.65625 3.76577C1.65625 3.95225 1.73033 4.13109 1.86219 4.26295C1.99405 4.39482 2.17289 4.46889 2.35937 4.46889H4.58213L6.58867 15.8411C6.61739 16.0039 6.70257 16.1513 6.82923 16.2576C6.95588 16.3638 7.11593 16.4221 7.28125 16.422H18.5312C18.7177 16.422 18.8966 16.3479 19.0284 16.2161C19.1603 16.0842 19.2344 15.9054 19.2344 15.7189C19.2344 15.5324 19.1603 15.3536 19.0284 15.2217C18.8966 15.0898 18.7177 15.0158 18.5312 15.0158H7.87099L7.62314 13.6095H18.243C18.4868 13.6092 18.723 13.5247 18.9117 13.3702C19.1004 13.2157 19.2299 13.0008 19.2783 12.7618L20.5439 6.43369C20.5744 6.28054 20.5705 6.12253 20.5325 5.97107C20.4945 5.81961 20.4234 5.67847 20.3242 5.55786Z" fill="white"/>
</svg>
