<svg width="16" height="16" viewBox="0 0 16 16" fill="none" xmlns="http://www.w3.org/2000/svg">
<path d="M8.00012 1.90601C4.64006 1.90601 1.90637 4.6397 1.90637 7.99976C1.90637 11.3598 4.64006 14.0935 8.00012 14.0935C11.3602 14.0935 14.0939 11.3598 14.0939 7.99976C14.0939 4.6397 11.3602 1.90601 8.00012 1.90601ZM11.1715 5.95747L7.23401 10.645C7.19082 10.6964 7.13707 10.738 7.07642 10.7668C7.01576 10.7957 6.94961 10.8112 6.88245 10.8123H6.87454C6.80883 10.8122 6.74387 10.7984 6.68386 10.7716C6.62385 10.7449 6.57013 10.7058 6.5262 10.657L4.8387 8.78198C4.79584 8.73653 4.7625 8.68296 4.74064 8.62444C4.71878 8.56592 4.70884 8.50361 4.7114 8.44119C4.71396 8.37877 4.72898 8.3175 4.75556 8.26096C4.78214 8.20443 4.81976 8.15377 4.8662 8.11198C4.91263 8.07019 4.96696 8.03811 5.02597 8.01761C5.08499 7.99712 5.1475 7.98862 5.20985 7.99263C5.27219 7.99664 5.3331 8.01308 5.38901 8.04096C5.44491 8.06885 5.49467 8.10763 5.53538 8.15503L6.86223 9.62925L10.4537 5.35454C10.5343 5.2614 10.6483 5.2037 10.771 5.19392C10.8938 5.18414 11.0155 5.22306 11.1098 5.30226C11.2041 5.38147 11.2634 5.49461 11.2749 5.61721C11.2865 5.73981 11.2493 5.86204 11.1715 5.95747V5.95747Z" fill="#68D391"/>
</svg>
