<svg width="23" height="23" viewBox="0 0 23 23" fill="none" xmlns="http://www.w3.org/2000/svg">
<path d="M12.9062 10.1056H19.0586C19.1021 10.1056 19.1438 10.1229 19.1746 10.1537C19.2054 10.1844 19.2227 10.2262 19.2227 10.2697V18.5314C19.2227 19.2742 18.9276 19.9866 18.4023 20.5118C17.8771 21.0371 17.1647 21.3322 16.4219 21.3322H6.57812C5.83531 21.3322 5.12292 21.0371 4.59767 20.5118C4.07243 19.9866 3.77734 19.2742 3.77734 18.5314V4.46889C3.77734 3.72608 4.07243 3.01369 4.59767 2.48844C5.12292 1.9632 5.83531 1.66811 6.57812 1.66811H10.6211C10.6646 1.66811 10.7063 1.6854 10.7371 1.71617C10.7679 1.74693 10.7852 1.78866 10.7852 1.83218V7.98452C10.7852 8.54707 11.0086 9.08658 11.4064 9.48436C11.8042 9.88214 12.3437 10.1056 12.9062 10.1056ZM7.98437 17.1369H15.0156C15.2052 17.1369 15.387 17.0615 15.5211 16.9275C15.6552 16.7934 15.7305 16.6116 15.7305 16.422C15.7305 16.2324 15.6552 16.0506 15.5211 15.9165C15.387 15.7825 15.2052 15.7072 15.0156 15.7072H7.98437C7.79479 15.7072 7.61296 15.7825 7.4789 15.9165C7.34484 16.0506 7.26953 16.2324 7.26953 16.422C7.26953 16.6116 7.34484 16.7934 7.4789 16.9275C7.61296 17.0615 7.79479 17.1369 7.98437 17.1369ZM7.98437 13.6212H15.0156C15.2052 13.6212 15.387 13.5459 15.5211 13.4119C15.6552 13.2778 15.7305 13.096 15.7305 12.9064C15.7305 12.7168 15.6552 12.535 15.5211 12.4009C15.387 12.2669 15.2052 12.1915 15.0156 12.1915H7.98437C7.79479 12.1915 7.61296 12.2669 7.4789 12.4009C7.34484 12.535 7.26953 12.7168 7.26953 12.9064C7.26953 13.096 7.34484 13.2778 7.4789 13.4119C7.61296 13.5459 7.79479 13.6212 7.98437 13.6212Z" fill="white" stroke="#4FD1C5" stroke-width="0.0234375"/>
<path d="M12.3447 2.22743L18.6644 8.54715C18.675 8.55781 18.6822 8.57135 18.6851 8.58608C18.688 8.60082 18.6865 8.61608 18.6808 8.62996C18.675 8.64384 18.6653 8.65571 18.6529 8.66409C18.6404 8.67246 18.6257 8.67696 18.6107 8.67703H12.9062C12.7228 8.67703 12.547 8.60418 12.4173 8.47452C12.2877 8.34486 12.2148 8.16899 12.2148 7.98562V2.2811C12.2149 2.26609 12.2194 2.25144 12.2278 2.23898C12.2361 2.22651 12.248 2.2168 12.2619 2.21106C12.2758 2.20532 12.291 2.20381 12.3058 2.20672C12.3205 2.20963 12.334 2.21683 12.3447 2.22742C12.3447 2.22742 12.3447 2.22742 12.3447 2.22743Z" fill="white" stroke="#4FD1C5" stroke-width="0.0234375"/>
</svg>
