<svg width="12" height="12" viewBox="0 0 12 12" fill="none" xmlns="http://www.w3.org/2000/svg">
<g clip-path="url(#clip0_1_1178)">
<path d="M9.97269 3.67535C9.98566 3.66778 9.99642 3.65695 10.0039 3.64392C10.0114 3.6309 10.0153 3.61614 10.0153 3.60112C10.0153 3.5861 10.0114 3.57135 10.0039 3.55832C9.99642 3.5453 9.98566 3.53446 9.97269 3.52689L6.69116 1.62037C6.4812 1.49866 6.24281 1.43457 6.00012 1.43457C5.75743 1.43457 5.51904 1.49866 5.30908 1.62037L2.0282 3.52689C2.01522 3.53446 2.00446 3.5453 1.99698 3.55832C1.9895 3.57135 1.98557 3.5861 1.98557 3.60112C1.98557 3.61614 1.9895 3.6309 1.99698 3.64392C2.00446 3.65695 2.01522 3.66778 2.0282 3.67535L5.95726 5.98664C5.97047 5.99442 5.98553 5.99853 6.00087 5.99853C6.01621 5.99853 6.03127 5.99442 6.04448 5.98664L9.97269 3.67535Z" fill="#2D3748"/>
<path d="M1.66039 4.25968C1.64728 4.25212 1.63241 4.24814 1.61728 4.24817C1.60215 4.24819 1.58729 4.25221 1.57421 4.25982C1.56113 4.26743 1.55029 4.27836 1.54278 4.2915C1.53528 4.30464 1.53138 4.31953 1.53148 4.33466V8.07058C1.53181 8.25061 1.57926 8.42743 1.66911 8.58343C1.75897 8.73944 1.8881 8.8692 2.04367 8.95982L5.52757 11.0487C5.54063 11.0563 5.55544 11.0603 5.57052 11.0603C5.5856 11.0603 5.60041 11.0563 5.61347 11.0488C5.62654 11.0412 5.63739 11.0304 5.64493 11.0173C5.65248 11.0043 5.65647 10.9895 5.65648 10.9744V6.63994C5.65647 6.62487 5.65249 6.61007 5.64494 6.59702C5.6374 6.58397 5.62656 6.57314 5.61351 6.5656L1.66039 4.25968Z" fill="#2D3748"/>
<path d="M6.34392 6.65497V10.9733C6.34393 10.9884 6.34792 11.0032 6.35546 11.0163C6.36301 11.0293 6.37386 11.0402 6.38692 11.0477C6.39999 11.0552 6.4148 11.0592 6.42988 11.0592C6.44496 11.0592 6.45977 11.0552 6.47282 11.0477L9.95651 8.95874C10.112 8.86824 10.241 8.73866 10.3309 8.58286C10.4208 8.42705 10.4684 8.25045 10.4689 8.07058V4.33466C10.4689 4.3196 10.4649 4.30482 10.4573 4.2918C10.4497 4.27877 10.4389 4.26797 10.4258 4.26046C10.4128 4.25295 10.398 4.24901 10.3829 4.24902C10.3678 4.24904 10.3531 4.25301 10.34 4.26054L6.38689 6.58085C6.37387 6.58837 6.36305 6.59917 6.35551 6.61217C6.34797 6.62518 6.34397 6.63994 6.34392 6.65497V6.65497Z" fill="#2D3748"/>
</g>
<defs>
<clipPath id="clip0_1_1178">
<rect width="11" height="11" fill="white" transform="translate(0.500153 0.747559)"/>
</clipPath>
</defs>
</svg>
