<svg width="23" height="23" viewBox="0 0 23 23" fill="none" xmlns="http://www.w3.org/2000/svg">
<path d="M11.5002 2.35847C6.45219 2.35847 2.35957 6.4511 2.35957 11.4991C2.35957 16.5471 6.45219 20.6397 11.5002 20.6397C16.5482 20.6397 20.6408 16.5471 20.6408 11.4991C20.6408 6.4511 16.5482 2.35847 11.5002 2.35847Z" fill="white" stroke="#4FD1C5" stroke-width="0.75" stroke-miterlimit="10"/>
<path d="M11.5001 2.35847C8.9482 2.35847 6.54878 6.4511 6.54878 11.4991C6.54878 16.5471 8.9482 20.6397 11.5001 20.6397C14.052 20.6397 16.4514 16.5471 16.4514 11.4991C16.4514 6.4511 14.052 2.35847 11.5001 2.35847Z" fill="white" stroke="#4FD1C5" stroke-width="0.75" stroke-miterlimit="10"/>
<path d="M5.40623 5.40542C7.0867 6.59854 9.20223 7.31001 11.5001 7.31001C13.798 7.31001 15.9136 6.59854 17.594 5.40542" fill="white"/>
<path d="M5.40623 5.40542C7.0867 6.59854 9.20223 7.31001 11.5001 7.31001C13.798 7.31001 15.9136 6.59854 17.594 5.40542" stroke="#4FD1C5" stroke-width="0.75" stroke-linecap="round" stroke-linejoin="round"/>
<path d="M17.594 17.5943C15.9136 16.4012 13.798 15.6897 11.5001 15.6897C9.20223 15.6897 7.0867 16.4012 5.40623 17.5943" stroke="#4FD1C5" stroke-width="0.75" stroke-linecap="round" stroke-linejoin="round"/>
<path d="M11.5001 2.35847V20.6397" stroke="#4FD1C5" stroke-width="0.75" stroke-miterlimit="10"/>
<path d="M20.6408 11.4989H2.35957" stroke="#4FD1C5" stroke-width="0.75" stroke-miterlimit="10"/>
</svg>
