<svg width="24" height="24" viewBox="0 0 24 24" fill="none" xmlns="http://www.w3.org/2000/svg">
<path d="M22.1799 10.3819L22.074 9.93234H12.3034V14.0677H18.1412C17.5351 16.9458 14.7226 18.4608 12.4253 18.4608C10.7537 18.4608 8.99166 17.7576 7.82541 16.6275C7.2101 16.0217 6.72031 15.3005 6.3841 14.5051C6.04788 13.7098 5.87183 12.856 5.86604 11.9925C5.86604 10.2506 6.64885 8.50828 7.78791 7.36219C8.92698 6.21609 10.6473 5.57484 12.3578 5.57484C14.3167 5.57484 15.7206 6.615 16.2456 7.08937L19.1842 4.16625C18.3221 3.40875 15.954 1.5 12.2631 1.5C9.41541 1.5 6.68495 2.59078 4.68901 4.58015C2.71932 6.53906 1.69979 9.37172 1.69979 12C1.69979 14.6283 2.66448 17.3194 4.57323 19.2937C6.61276 21.3994 9.50119 22.5 12.4754 22.5C15.1815 22.5 17.7465 21.4397 19.5746 19.5159C21.3718 17.6222 22.3013 15.0019 22.3013 12.255C22.3013 11.0986 22.1851 10.4119 22.1799 10.3819Z" fill="#2D3748"/>
</svg>
