<svg width="24" height="24" viewBox="0 0 24 24" fill="none" xmlns="http://www.w3.org/2000/svg">
<path d="M11.9999 3C7.03113 3 2.99988 7.03125 2.99988 12C2.99988 16.9687 7.03113 21 11.9999 21C16.9686 21 20.9999 16.9687 20.9999 12C20.9999 7.03125 16.9686 3 11.9999 3ZM11.7186 17.25C11.5332 17.25 11.3519 17.195 11.1978 17.092C11.0436 16.989 10.9234 16.8426 10.8525 16.6713C10.7815 16.5 10.763 16.3115 10.7991 16.1296C10.8353 15.9477 10.9246 15.7807 11.0557 15.6496C11.1868 15.5185 11.3539 15.4292 11.5357 15.393C11.7176 15.3568 11.9061 15.3754 12.0774 15.4464C12.2487 15.5173 12.3951 15.6375 12.4981 15.7916C12.6011 15.9458 12.6561 16.1271 12.6561 16.3125C12.6561 16.5611 12.5574 16.7996 12.3815 16.9754C12.2057 17.1512 11.9673 17.25 11.7186 17.25V17.25ZM13.2861 12.4687C12.5263 12.9787 12.4218 13.4461 12.4218 13.875C12.4218 14.049 12.3526 14.216 12.2295 14.339C12.1065 14.4621 11.9395 14.5312 11.7655 14.5312C11.5915 14.5312 11.4245 14.4621 11.3015 14.339C11.1784 14.216 11.1093 14.049 11.1093 13.875C11.1093 12.848 11.5818 12.0314 12.5539 11.3784C13.4577 10.7719 13.9686 10.3875 13.9686 9.54234C13.9686 8.96766 13.6405 8.53125 12.9613 8.20828C12.8014 8.13234 12.4457 8.05828 12.0078 8.06344C11.4585 8.07047 11.0319 8.20172 10.7033 8.46609C10.0836 8.96484 10.0311 9.50765 10.0311 9.51562C10.027 9.6018 10.0059 9.68632 9.96906 9.76435C9.93225 9.84238 9.88042 9.91239 9.81654 9.9704C9.75267 10.0284 9.67799 10.0732 9.59678 10.1024C9.51557 10.1315 9.42942 10.1444 9.34324 10.1402C9.25706 10.1361 9.17254 10.115 9.09451 10.0782C9.01648 10.0414 8.94647 9.98952 8.88846 9.92565C8.83046 9.86177 8.78561 9.7871 8.75647 9.70589C8.72733 9.62468 8.71447 9.53852 8.71863 9.45234C8.72378 9.33844 8.803 8.31234 9.87972 7.44609C10.438 6.99703 11.1482 6.76359 11.9891 6.75328C12.5844 6.74625 13.1436 6.84703 13.5228 7.02609C14.6577 7.56281 15.2811 8.45766 15.2811 9.54234C15.2811 11.1281 14.2213 11.8402 13.2861 12.4687Z" fill="#4FD1C5"/>
</svg>
