<svg width="15" height="16" viewBox="0 0 15 16" fill="none" xmlns="http://www.w3.org/2000/svg">
<g clip-path="url(#clip0_1_1057)">
<path d="M7.66283 3.46754C7.61921 3.42581 7.56118 3.40253 7.50082 3.40253C7.44046 3.40253 7.38242 3.42581 7.3388 3.46754L1.94525 8.61998C1.92235 8.64189 1.90412 8.66822 1.89168 8.69738C1.87925 8.72653 1.87285 8.75791 1.87289 8.78961L1.87201 13.6253C1.87201 13.874 1.97078 14.1124 2.1466 14.2883C2.32241 14.4641 2.56087 14.5628 2.80951 14.5628H5.62494C5.74926 14.5628 5.86849 14.5135 5.95639 14.4256C6.0443 14.3376 6.09369 14.2184 6.09369 14.0941V10.1097C6.09369 10.0476 6.11838 9.98795 6.16233 9.944C6.20629 9.90004 6.2659 9.87535 6.32806 9.87535H8.67181C8.73397 9.87535 8.79359 9.90004 8.83754 9.944C8.88149 9.98795 8.90619 10.0476 8.90619 10.1097V14.0941C8.90619 14.2184 8.95557 14.3376 9.04348 14.4256C9.13139 14.5135 9.25062 14.5628 9.37494 14.5628H12.1892C12.4378 14.5628 12.6763 14.4641 12.8521 14.2883C13.0279 14.1124 13.1267 13.874 13.1267 13.6253V8.78961C13.1267 8.75791 13.1203 8.72653 13.1079 8.69738C13.0955 8.66822 13.0772 8.64189 13.0543 8.61998L7.66283 3.46754Z" fill="white"/>
<path d="M14.3824 7.65374L12.191 5.55725V2.37591C12.191 2.25159 12.1416 2.13236 12.0537 2.04445C11.9658 1.95654 11.8465 1.90716 11.7222 1.90716H10.316C10.1917 1.90716 10.0724 1.95654 9.98452 2.04445C9.89661 2.13236 9.84722 2.25159 9.84722 2.37591V3.31341L8.15035 1.69095C7.99156 1.5304 7.75543 1.43841 7.50025 1.43841C7.24596 1.43841 7.01041 1.5304 6.85162 1.69124L0.620177 7.65315C0.437951 7.82893 0.415099 8.11809 0.580919 8.30852C0.622559 8.35659 0.673545 8.39568 0.730772 8.42342C0.788 8.45116 0.850273 8.46696 0.913802 8.46986C0.977331 8.47277 1.04079 8.46272 1.10031 8.44032C1.15983 8.41792 1.21417 8.38365 1.26002 8.33958L7.33912 2.5306C7.38274 2.48887 7.44077 2.46558 7.50113 2.46558C7.56149 2.46558 7.61953 2.48887 7.66314 2.5306L13.7428 8.33958C13.8324 8.42546 13.9523 8.47233 14.0764 8.46992C14.2005 8.4675 14.3185 8.41599 14.4046 8.32669C14.5845 8.14036 14.5696 7.83274 14.3824 7.65374Z" fill="white"/>
</g>
<defs>
<clipPath id="clip0_1_1057">
<rect width="15" height="15" fill="white" transform="translate(-6.10352e-05 0.500038)"/>
</clipPath>
</defs>
</svg>
