<svg width="14" height="13" viewBox="0 0 14 13" fill="none" xmlns="http://www.w3.org/2000/svg">
<path d="M12.2139 3.19288C12.1858 3.13817 12.1451 3.09088 12.0953 3.05486C12.0454 3.01884 11.9877 2.9951 11.927 2.98559C11.8662 2.97607 11.804 2.98104 11.7455 3.00009C11.687 3.01914 11.6339 3.05174 11.5904 3.09522L10.0904 4.5962C10.0167 4.66876 9.91751 4.70944 9.81412 4.70944C9.71074 4.70944 9.61151 4.66876 9.53788 4.5962L8.88944 3.94678C8.85316 3.91051 8.82438 3.86744 8.80474 3.82005C8.78511 3.77265 8.775 3.72185 8.775 3.67054C8.775 3.61924 8.78511 3.56843 8.80474 3.52103C8.82438 3.47364 8.85316 3.43057 8.88944 3.39429L10.3831 1.9004C10.4279 1.85563 10.4611 1.80064 10.4799 1.74018C10.4987 1.67972 10.5025 1.61559 10.491 1.55332C10.4796 1.49106 10.4531 1.43251 10.414 1.38273C10.3748 1.33296 10.3242 1.29344 10.2664 1.26759C9.13822 0.763192 7.73002 1.02638 6.84208 1.90772C6.08769 2.65675 5.86283 3.82716 6.22562 5.1189C6.24518 5.18779 6.2453 5.26074 6.22595 5.32969C6.2066 5.39863 6.16855 5.46088 6.11601 5.50953L2.05155 9.22169C1.89321 9.36385 1.7655 9.53679 1.67619 9.72994C1.58689 9.92309 1.53787 10.1324 1.53213 10.3451C1.52638 10.5578 1.56403 10.7695 1.64279 10.9672C1.72154 11.1649 1.83974 11.3445 1.99017 11.495C2.14061 11.6455 2.32013 11.7637 2.51778 11.8426C2.71544 11.9214 2.92708 11.9592 3.1398 11.9535C3.35252 11.9479 3.56186 11.8989 3.75505 11.8097C3.94824 11.7205 4.12123 11.5929 4.26347 11.4346L8.01542 7.36109C8.06337 7.30922 8.12456 7.27142 8.19241 7.25176C8.26025 7.2321 8.33218 7.23133 8.40043 7.24952C8.76819 7.35028 9.14754 7.40257 9.52885 7.40504C10.3443 7.40504 11.0599 7.14112 11.576 6.63258C12.5318 5.69093 12.6775 4.09376 12.2139 3.19288ZM3.17924 11.1672C3.01845 11.1848 2.85617 11.152 2.71481 11.0734C2.57345 10.9948 2.45997 10.8743 2.39003 10.7284C2.32009 10.5826 2.29714 10.4186 2.32435 10.2592C2.35156 10.0997 2.42759 9.95267 2.54194 9.83828C2.65629 9.72388 2.80333 9.6478 2.96276 9.62054C3.12219 9.59327 3.28616 9.61616 3.43203 9.68605C3.5779 9.75593 3.69848 9.86937 3.77713 10.0107C3.85578 10.152 3.88863 10.3143 3.87113 10.4751C3.85189 10.652 3.77281 10.8171 3.64699 10.9429C3.52117 11.0688 3.35615 11.1479 3.17924 11.1672Z" fill="white"/>
</svg>
