<svg width="21" height="21" viewBox="0 0 21 21" fill="none" xmlns="http://www.w3.org/2000/svg">
<g clip-path="url(#clip0_1_786)">
<path d="M10.5 7.16671C11.4167 7.16671 12.1667 6.41671 12.1667 5.50004C12.1667 4.58337 11.4167 3.83337 10.5 3.83337C9.58337 3.83337 8.83337 4.58337 8.83337 5.50004C8.83337 6.41671 9.58337 7.16671 10.5 7.16671ZM10.5 8.83337C9.58337 8.83337 8.83337 9.58337 8.83337 10.5C8.83337 11.4167 9.58337 12.1667 10.5 12.1667C11.4167 12.1667 12.1667 11.4167 12.1667 10.5C12.1667 9.58337 11.4167 8.83337 10.5 8.83337ZM10.5 13.8334C9.58337 13.8334 8.83337 14.5834 8.83337 15.5C8.83337 16.4167 9.58337 17.1667 10.5 17.1667C11.4167 17.1667 12.1667 16.4167 12.1667 15.5C12.1667 14.5834 11.4167 13.8334 10.5 13.8334Z" fill="#A0AEC0"/>
</g>
<defs>
<clipPath id="clip0_1_786">
<rect width="20" height="20" fill="white" transform="translate(0.500061 0.5)"/>
</clipPath>
</defs>
</svg>
