<svg width="20" height="20" viewBox="0 0 20 20" fill="none" xmlns="http://www.w3.org/2000/svg">
<g clip-path="url(#clip0_1_638)">
<path d="M18.1872 -0.000854492H1.81329C0.811963 -0.000854492 0.000244141 0.810864 0.000244141 1.81219V18.1861C0.000244141 19.1874 0.811963 19.9991 1.81329 19.9991H18.1872C19.1885 19.9991 20.0002 19.1874 20.0002 18.1861V1.81219C20.0002 0.810864 19.1885 -0.000854492 18.1872 -0.000854492Z" fill="#DC395F"/>
<path d="M6.68416 6.29259C7.349 6.29259 7.90595 5.7715 7.90595 5.08853C7.90595 4.40603 7.349 3.88501 6.68416 3.88501C6.01931 3.88501 5.46251 4.40603 5.46251 5.08853C5.46251 5.77142 6.01931 6.29259 6.68416 6.29259ZM4.15087 12.7395C4.07908 13.0449 4.04306 13.3748 4.04306 13.6439C4.04306 14.7041 4.61798 15.4079 5.83978 15.4079C6.85306 15.4079 7.67455 14.8062 8.26603 13.8346L7.90486 15.284H9.91697L11.067 10.6716C11.3545 9.50377 11.9114 8.8976 12.756 8.8976C13.4207 8.8976 13.8339 9.31103 13.8339 9.99354C13.8339 10.1913 13.816 10.4067 13.7441 10.6403L13.1511 12.7604C13.0613 13.0659 13.0255 13.3715 13.0255 13.6588C13.0255 14.6653 13.6182 15.4014 14.858 15.4014C15.9181 15.4014 16.7624 14.719 17.2296 13.0839L16.4392 12.7788C16.0438 13.8742 15.7024 14.0722 15.4329 14.0722C15.1634 14.0722 15.0196 13.8927 15.0196 13.5335C15.0196 13.3718 15.0557 13.1924 15.1095 12.9763L15.6845 10.9108C15.8282 10.4258 15.8822 9.99572 15.8822 9.60057C15.8822 8.05541 14.9478 7.249 13.816 7.249C12.756 7.249 11.6778 8.20517 11.1389 9.2115L11.5341 7.40525H8.46189L8.03064 8.99619H9.46806L8.58291 12.5399C7.88783 14.0851 6.61103 14.1102 6.4508 14.0743C6.18767 14.0149 6.01939 13.915 6.01939 13.5731C6.01939 13.3759 6.05533 13.0925 6.14517 12.7509L7.49283 7.40525H4.07908L3.64783 8.99619H5.06712L4.15095 12.7395" fill="white"/>
</g>
<defs>
<clipPath id="clip0_1_638">
<rect width="20" height="20" fill="white" transform="translate(0.000244141 -0.000854492)"/>
</clipPath>
</defs>
</svg>
