<svg width="12" height="12" viewBox="0 0 12 12" fill="none" xmlns="http://www.w3.org/2000/svg">
<g clip-path="url(#clip0_1_1328)">
<path d="M9.97214 3.67535C9.98511 3.66778 9.99587 3.65694 10.0034 3.64392C10.0108 3.6309 10.0148 3.61614 10.0148 3.60112C10.0148 3.5861 10.0108 3.57135 10.0034 3.55832C9.99587 3.5453 9.98511 3.53446 9.97214 3.52689L6.69062 1.62037C6.48065 1.49866 6.24226 1.43457 5.99957 1.43457C5.75688 1.43457 5.51849 1.49866 5.30853 1.62037L2.02765 3.52689C2.01467 3.53446 2.00391 3.5453 1.99643 3.55832C1.98895 3.57135 1.98502 3.5861 1.98502 3.60112C1.98502 3.61614 1.98895 3.6309 1.99643 3.64392C2.00391 3.65694 2.01467 3.66778 2.02765 3.67535L5.95671 5.98664C5.96993 5.99442 5.98498 5.99853 6.00032 5.99853C6.01566 5.99853 6.03072 5.99442 6.04394 5.98664L9.97214 3.67535Z" fill="white"/>
<path d="M1.65984 4.25956C1.64673 4.25199 1.63186 4.24802 1.61673 4.24805C1.6016 4.24807 1.58674 4.25209 1.57366 4.2597C1.56058 4.26731 1.54974 4.27824 1.54224 4.29138C1.53473 4.30452 1.53083 4.31941 1.53093 4.33454V8.07046C1.53126 8.25049 1.57871 8.4273 1.66856 8.58331C1.75842 8.73932 1.88755 8.86908 2.04312 8.9597L5.52702 11.0486C5.54008 11.0562 5.55489 11.0601 5.56997 11.0601C5.58505 11.0601 5.59986 11.0562 5.61292 11.0486C5.62599 11.0411 5.63684 11.0303 5.64438 11.0172C5.65193 11.0042 5.65592 10.9894 5.65593 10.9743V6.63981C5.65592 6.62474 5.65194 6.60994 5.6444 6.5969C5.63685 6.58385 5.62601 6.57301 5.61296 6.56548L1.65984 4.25956Z" fill="white"/>
<path d="M6.34337 6.65497V10.9733C6.34338 10.9884 6.34737 11.0032 6.35492 11.0163C6.36246 11.0293 6.37331 11.0402 6.38638 11.0477C6.39944 11.0552 6.41425 11.0592 6.42933 11.0592C6.44441 11.0592 6.45922 11.0552 6.47227 11.0477L9.95597 8.95874C10.1114 8.86824 10.2405 8.73866 10.3304 8.58286C10.4203 8.42705 10.4678 8.25045 10.4684 8.07058V4.33466C10.4683 4.3196 10.4643 4.30482 10.4567 4.2918C10.4492 4.27877 10.4383 4.26797 10.4253 4.26046C10.4122 4.25295 10.3974 4.24901 10.3824 4.24902C10.3673 4.24904 10.3525 4.25301 10.3395 4.26054L6.38634 6.58085C6.37332 6.58837 6.3625 6.59917 6.35496 6.61217C6.34742 6.62518 6.34342 6.63994 6.34337 6.65497Z" fill="white"/>
</g>
<defs>
<clipPath id="clip0_1_1328">
<rect width="11" height="11" fill="white" transform="translate(0.499603 0.747559)"/>
</clipPath>
</defs>
</svg>
