<svg width="20" height="21" viewBox="0 0 20 21" fill="none" xmlns="http://www.w3.org/2000/svg">
<g clip-path="url(#clip0_1_656)">
<path d="M19.7596 9.91885L10.8968 0.989726L10.038 0.124512L3.36637 6.84613L0.315567 9.91885C0.163181 10.0732 0.0776367 10.282 0.0776367 10.4997C0.0776367 10.7174 0.163181 10.9262 0.315567 11.0805L6.41074 17.2213L10.038 20.8748L16.7088 14.1532L16.8127 14.0495L19.7596 11.0851C19.836 11.0088 19.8966 10.9179 19.938 10.8178C19.9793 10.7177 20.0006 10.6104 20.0006 10.502C20.0006 10.3936 19.9793 10.2862 19.938 10.1862C19.8966 10.0861 19.836 9.99523 19.7596 9.91885ZM10.038 13.5678L6.99276 10.4997L10.038 7.43159L13.0824 10.4997L10.038 13.5678Z" fill="#2684FF"/>
<path d="M10.0377 7.43185C9.07997 6.46716 8.54007 5.15982 8.53593 3.7954C8.5318 2.43097 9.06376 1.12034 10.0156 0.14978L3.35223 6.86029L6.97863 10.5138L10.0377 7.43185Z" fill="url(#paint0_linear_1_656)"/>
<path d="M13.0904 10.4916L10.0377 13.568C10.9991 14.5368 11.5391 15.8507 11.5391 17.2206C11.5391 18.5905 10.9991 19.9044 10.0377 20.8732L16.7195 14.1451L13.0904 10.4916Z" fill="url(#paint1_linear_1_656)"/>
</g>
<defs>
<linearGradient id="paint0_linear_1_656" x1="9.49246" y1="4.32764" x2="5.2082" y2="8.57914" gradientUnits="userSpaceOnUse">
<stop offset="0.18" stop-color="#0052CC"/>
<stop offset="1" stop-color="#2684FF"/>
</linearGradient>
<linearGradient id="paint1_linear_1_656" x1="776.104" y1="900.925" x2="1212.24" y2="1181.57" gradientUnits="userSpaceOnUse">
<stop offset="0.18" stop-color="#0052CC"/>
<stop offset="1" stop-color="#2684FF"/>
</linearGradient>
<clipPath id="clip0_1_656">
<rect width="20" height="21" fill="white" transform="translate(0.000244141 -0.000854492)"/>
</clipPath>
</defs>
</svg>
