<svg width="12" height="12" viewBox="0 0 12 12" fill="none" xmlns="http://www.w3.org/2000/svg">
<g clip-path="url(#clip0_1_1170)">
<path d="M7.64686 2.13478C7.22877 1.68339 6.64483 1.43481 6.00029 1.43481C5.35233 1.43481 4.76645 1.68188 4.3503 2.13048C3.92963 2.58401 3.72467 3.2004 3.7728 3.86599C3.86819 5.17911 4.86742 6.24731 6.00029 6.24731C7.13317 6.24731 8.13069 5.17933 8.22758 3.86642C8.27635 3.20685 8.0701 2.59175 7.64686 2.13478Z" fill="#2D3748"/>
<path d="M9.78156 11.0593H2.21906C2.12008 11.0606 2.02205 11.0398 1.93211 10.9985C1.84217 10.9571 1.76259 10.8962 1.69914 10.8202C1.55949 10.6533 1.5032 10.4253 1.54488 10.1948C1.72621 9.1889 2.29211 8.34392 3.18156 7.75073C3.97176 7.22415 4.97271 6.93433 6.00031 6.93433C7.02791 6.93433 8.02887 7.22437 8.81906 7.75073C9.70851 8.3437 10.2744 9.18868 10.4557 10.1946C10.4974 10.4251 10.4411 10.6531 10.3015 10.82C10.2381 10.896 10.1585 10.957 10.0685 10.9984C9.9786 11.0398 9.88056 11.0606 9.78156 11.0593V11.0593Z" fill="#2D3748"/>
</g>
<defs>
<clipPath id="clip0_1_1170">
<rect width="11" height="11" fill="white" transform="translate(0.500343 0.747559)"/>
</clipPath>
</defs>
</svg>
