<svg width="12" height="12" viewBox="0 0 12 12" fill="none" xmlns="http://www.w3.org/2000/svg">
<g clip-path="url(#clip0_1_1320)">
<path d="M7.64632 2.13502C7.22823 1.68363 6.64428 1.43506 5.99975 1.43506C5.35178 1.43506 4.76591 1.68213 4.34975 2.13072C3.92909 2.58426 3.72413 3.20064 3.77225 3.86623C3.86764 5.17935 4.86688 6.24756 5.99975 6.24756C7.13262 6.24756 8.13014 5.17957 8.22704 3.86666C8.27581 3.20709 8.06956 2.59199 7.64632 2.13502Z" fill="white"/>
<path d="M9.78102 11.0596H2.21852C2.11954 11.0609 2.02151 11.0401 1.93157 10.9987C1.84163 10.9573 1.76204 10.8964 1.6986 10.8204C1.55895 10.6535 1.50266 10.4256 1.54434 10.195C1.72567 9.18914 2.29157 8.34416 3.18102 7.75098C3.97122 7.22439 4.97217 6.93457 5.99977 6.93457C7.02737 6.93457 8.02832 7.22461 8.81852 7.75098C9.70797 8.34394 10.2739 9.18893 10.4552 10.1948C10.4969 10.4254 10.4406 10.6533 10.3009 10.8202C10.2375 10.8963 10.1579 10.9572 10.068 10.9986C9.97806 11.04 9.88002 11.0608 9.78102 11.0596Z" fill="white"/>
</g>
<defs>
<clipPath id="clip0_1_1320">
<rect width="11" height="11" fill="white" transform="translate(0.499802 0.747559)"/>
</clipPath>
</defs>
</svg>
