<svg width="15" height="16" viewBox="0 0 15 16" fill="none" xmlns="http://www.w3.org/2000/svg">
<path d="M9.74534 2.39175C9.17522 1.77622 8.37893 1.43726 7.50003 1.43726C6.61643 1.43726 5.81751 1.77417 5.25003 2.38589C4.6764 3.00435 4.3969 3.84487 4.46253 4.75249C4.59261 6.54311 5.9552 7.99975 7.50003 7.99975C9.04485 7.99975 10.4051 6.54341 10.5372 4.75307C10.6037 3.85366 10.3225 3.01489 9.74534 2.39175Z" fill="#4FD1C5"/>
<path d="M12.6563 14.5616H2.3438C2.20881 14.5634 2.07514 14.535 1.9525 14.4786C1.82985 14.4222 1.72133 14.3392 1.63481 14.2355C1.44438 14.0079 1.36762 13.6971 1.42446 13.3827C1.67173 12.011 2.4434 10.8588 3.65629 10.0499C4.73383 9.33183 6.09877 8.93661 7.50004 8.93661C8.90131 8.93661 10.2663 9.33212 11.3438 10.0499C12.5567 10.8585 13.3284 12.0107 13.5756 13.3824C13.6325 13.6968 13.5557 14.0076 13.3653 14.2352C13.2788 14.3389 13.1703 14.422 13.0476 14.4785C12.925 14.5349 12.7913 14.5633 12.6563 14.5616V14.5616Z" fill="#4FD1C5"/>
</svg>
