<svg width="12" height="12" viewBox="0 0 12 12" fill="none" xmlns="http://www.w3.org/2000/svg">
<g clip-path="url(#clip0_1_991)">
<path d="M7.79615 1.51343C7.34006 1.02101 6.70302 0.749836 5.9999 0.749836C5.29302 0.749836 4.65388 1.01937 4.1999 1.50874C3.74099 2.00351 3.5174 2.67593 3.5699 3.40202C3.67396 4.83452 4.76404 5.99983 5.9999 5.99983C7.23576 5.99983 8.32396 4.83476 8.42966 3.40249C8.48287 2.68296 8.25787 2.01194 7.79615 1.51343Z" fill="#718096"/>
<path d="M10.1249 11.2493H1.87489C1.7669 11.2507 1.65996 11.228 1.56185 11.1829C1.46374 11.1378 1.37691 11.0713 1.3077 10.9884C1.15536 10.8063 1.09395 10.5577 1.13942 10.3062C1.33723 9.20884 1.95458 8.28704 2.92489 7.63993C3.78692 7.06548 4.87887 6.74931 5.99989 6.74931C7.1209 6.74931 8.21285 7.06571 9.07488 7.63993C10.0452 8.2868 10.6625 9.2086 10.8604 10.3059C10.9058 10.5574 10.8444 10.8061 10.6921 10.9882C10.6229 11.0712 10.5361 11.1376 10.438 11.1828C10.3398 11.228 10.2329 11.2507 10.1249 11.2493Z" fill="#718096"/>
</g>
<defs>
<clipPath id="clip0_1_991">
<rect width="12" height="12" fill="white"/>
</clipPath>
</defs>
</svg>
