<svg width="20" height="20" viewBox="0 0 20 20" fill="none" xmlns="http://www.w3.org/2000/svg">
<path d="M5.92706 9.23904C5.83529 9.11922 5.69979 9.04064 5.55022 9.02049C5.40065 9.00034 5.24919 9.04026 5.12898 9.13152C5.05826 9.18729 5.00121 9.25848 4.9622 9.33966L0.0620608 19.1427C-0.00734185 19.2816 -0.0187415 19.4424 0.0303676 19.5897C0.0794766 19.7371 0.185075 19.8589 0.323953 19.9284C0.405129 19.9694 0.494875 19.9907 0.585845 19.9904H7.41295C7.5223 19.9932 7.63009 19.964 7.72312 19.9065C7.81616 19.849 7.89039 19.7655 7.93674 19.6665C9.41022 16.623 8.51703 11.9958 5.92706 9.23904Z" fill="url(#paint0_linear_1_745)"/>
<path d="M9.52871 0.318096C8.30716 2.19786 7.59525 4.36289 7.46283 6.60078C7.33041 8.83867 7.78202 11.0726 8.77336 13.0833L12.0649 19.6664C12.1136 19.7637 12.1883 19.8455 12.2808 19.9027C12.3733 19.9599 12.4799 19.9903 12.5887 19.9903H19.4144C19.4914 19.9905 19.5677 19.9755 19.6388 19.9461C19.71 19.9167 19.7746 19.8736 19.8291 19.8191C19.8835 19.7647 19.9267 19.7001 19.956 19.6289C19.9854 19.5577 20.0004 19.4815 20.0003 19.4045C20.0003 19.3137 19.9796 19.2241 19.9396 19.1426L10.5253 0.31534C10.4806 0.220998 10.41 0.141281 10.3218 0.0854577C10.2336 0.0296347 10.1314 0 10.027 0C9.92261 0 9.82037 0.0296347 9.73216 0.0854577C9.64395 0.141281 9.5734 0.220998 9.52871 0.31534V0.318096Z" fill="#2684FF"/>
<defs>
<linearGradient id="paint0_linear_1_745" x1="8.62455" y1="10.7373" x2="3.45012" y2="19.6995" gradientUnits="userSpaceOnUse">
<stop stop-color="#0052CC"/>
<stop offset="0.92" stop-color="#2684FF"/>
</linearGradient>
</defs>
</svg>
