<svg width="14" height="13" viewBox="0 0 14 13" fill="none" xmlns="http://www.w3.org/2000/svg">
<path d="M12.4112 1.18465C12.4067 1.16306 12.3962 1.14319 12.3809 1.12736C12.3655 1.11154 12.346 1.10041 12.3245 1.0953C10.8946 0.745689 7.59064 1.99154 5.8006 3.78084C5.48134 4.09753 5.19028 4.44144 4.93073 4.80868C4.37873 4.75985 3.82673 4.80062 3.35627 5.0057C2.02888 5.58993 1.6424 7.11434 1.53474 7.7701C1.52863 7.80599 1.53093 7.84281 1.54147 7.87766C1.552 7.91252 1.57047 7.94445 1.59544 7.97095C1.6204 7.99745 1.65117 8.0178 1.68534 8.0304C1.7195 8.04299 1.75611 8.04749 1.79231 8.04354L3.9239 7.80843C3.92542 7.96914 3.93512 8.12966 3.95295 8.28939C3.96368 8.4003 4.01291 8.50396 4.09211 8.58236L4.91755 9.40584C4.99601 9.48494 5.09963 9.53415 5.21052 9.545C5.36935 9.56277 5.52898 9.57246 5.68879 9.57405L5.4549 11.703C5.451 11.7391 5.45553 11.7757 5.46815 11.8099C5.48076 11.844 5.50111 11.8748 5.5276 11.8997C5.55409 11.9247 5.586 11.9431 5.62083 11.9537C5.65566 11.9642 5.69245 11.9666 5.72834 11.9605C6.38288 11.8555 7.90998 11.4691 8.49079 10.1417C8.69587 9.67122 8.73786 9.12191 8.6905 8.57259C9.05862 8.31303 9.40343 8.02189 9.72101 7.70247C11.5167 5.91585 12.7554 2.68563 12.4112 1.18465ZM7.92951 5.57113C7.76554 5.40727 7.65386 5.19846 7.60858 4.97112C7.5633 4.74378 7.58646 4.50811 7.67513 4.29393C7.76381 4.07976 7.91401 3.89669 8.10674 3.76789C8.29947 3.63909 8.52607 3.57034 8.75788 3.57034C8.98969 3.57034 9.21629 3.63909 9.40902 3.76789C9.60175 3.89669 9.75195 4.07976 9.84062 4.29393C9.9293 4.50811 9.95246 4.74378 9.90718 4.97112C9.8619 5.19846 9.75021 5.40727 9.58625 5.57113C9.47752 5.68001 9.34839 5.76639 9.20625 5.82532C9.06412 5.88426 8.91175 5.91459 8.75788 5.91459C8.604 5.91459 8.45164 5.88426 8.3095 5.82532C8.16736 5.76639 8.03824 5.68001 7.92951 5.57113Z" fill="white"/>
<path d="M4.86139 10.0023C4.7276 10.1364 4.513 10.1886 4.2547 10.2333C3.67438 10.3322 3.16193 9.83069 3.26617 9.24402C3.30597 9.02161 3.42364 8.70984 3.49689 8.6366C3.5129 8.6209 3.52355 8.60055 3.52734 8.57845C3.53113 8.55635 3.52786 8.53362 3.51799 8.51348C3.50813 8.49335 3.49217 8.47683 3.47238 8.46628C3.4526 8.45573 3.42999 8.45168 3.40778 8.45471C3.08325 8.49442 2.78134 8.64155 2.55011 8.87268C1.97614 9.44714 1.92194 11.5787 1.92194 11.5787C1.92194 11.5787 4.05475 11.5245 4.62872 10.9501C4.86057 10.719 5.00789 10.4167 5.04694 10.0917C5.05597 9.98962 4.9317 9.92883 4.86139 10.0023Z" fill="white"/>
</svg>
