<svg width="16" height="16" viewBox="0 0 16 16" fill="none" xmlns="http://www.w3.org/2000/svg">
<path d="M13.6293 13.0958L10.8728 10.3393C11.5365 9.45578 11.8947 8.38039 11.8935 7.27541C11.8935 4.45295 9.59721 2.15666 6.77475 2.15666C3.95229 2.15666 1.65601 4.45295 1.65601 7.27541C1.65601 10.0979 3.95229 12.3942 6.77475 12.3942C7.87974 12.3954 8.95513 12.0371 9.83862 11.3735L12.5952 14.13C12.7347 14.2547 12.9167 14.3213 13.1038 14.3161C13.2909 14.3108 13.4688 14.2342 13.6012 14.1018C13.7335 13.9695 13.8102 13.7915 13.8154 13.6044C13.8207 13.4173 13.7541 13.2353 13.6293 13.0958ZM3.11851 7.27541C3.11851 6.55227 3.33294 5.84537 3.73469 5.2441C4.13645 4.64284 4.70748 4.17421 5.37557 3.89747C6.04366 3.62074 6.77881 3.54833 7.48805 3.68941C8.1973 3.83049 8.84878 4.17871 9.36011 4.69005C9.87145 5.20138 10.2197 5.85286 10.3607 6.56211C10.5018 7.27135 10.4294 8.0065 10.1527 8.67459C9.87595 9.34268 9.40732 9.91371 8.80606 10.3155C8.20479 10.7172 7.49789 10.9317 6.77475 10.9317C5.80541 10.9305 4.87611 10.5449 4.19068 9.85948C3.50525 9.17405 3.11967 8.24475 3.11851 7.27541Z" fill="#2D3748"/>
</svg>
