<svg width="12" height="13" viewBox="0 0 12 13" fill="none" xmlns="http://www.w3.org/2000/svg">
<g clip-path="url(#clip0_1_993)">
<path d="M5.99991 4.62513C5.62907 4.62513 5.26656 4.7351 4.95822 4.94112C4.64987 5.14715 4.40955 5.43999 4.26764 5.7826C4.12572 6.12521 4.08859 6.50221 4.16094 6.86592C4.23328 7.22964 4.41186 7.56373 4.67408 7.82595C4.93631 8.08818 5.2704 8.26675 5.63411 8.3391C5.99783 8.41145 6.37483 8.37432 6.71744 8.2324C7.06005 8.09049 7.35289 7.85016 7.55891 7.54182C7.76494 7.23348 7.87491 6.87097 7.87491 6.50013C7.87342 6.0033 7.6754 5.52725 7.32409 5.17594C6.97278 4.82463 6.49673 4.62661 5.99991 4.62513ZM10.048 6.50013C10.0471 6.67533 10.0342 6.85026 10.0096 7.02372L11.1508 7.91716C11.2005 7.9582 11.234 8.01557 11.2452 8.07903C11.2565 8.14249 11.2449 8.2079 11.2124 8.26356L10.1329 10.1273C10.1001 10.1825 10.0488 10.2243 9.98822 10.2455C9.9276 10.2666 9.86148 10.2657 9.80147 10.2429L8.45967 9.7038C8.18027 9.91895 7.87451 10.0975 7.54983 10.2351L7.34921 11.6597C7.33798 11.7235 7.30494 11.7814 7.25573 11.8235C7.20653 11.8657 7.14422 11.8895 7.07944 11.8908H4.92038C4.85678 11.8895 4.79548 11.8668 4.74649 11.8262C4.69749 11.7856 4.66369 11.7296 4.65061 11.6674L4.44999 10.2429C4.12441 10.1068 3.81843 9.928 3.54014 9.71106L2.19835 10.2501C2.13837 10.273 2.07226 10.2739 2.01165 10.2528C1.95103 10.2317 1.8998 10.1899 1.86694 10.1348L0.787411 8.2713C0.754917 8.21563 0.743276 8.15023 0.754568 8.08677C0.76586 8.02331 0.79935 7.96593 0.849052 7.92489L1.99022 7.03146C1.96588 6.85537 1.95304 6.67788 1.95179 6.50013C1.95276 6.32493 1.9656 6.15 1.99022 5.97653L0.849052 5.0831C0.79935 5.04206 0.76586 4.98468 0.754568 4.92122C0.743276 4.85776 0.754917 4.79236 0.787411 4.73669L1.86694 2.87294C1.89976 2.81777 1.95098 2.77594 2.0116 2.7548C2.07221 2.73367 2.13834 2.73459 2.19835 2.75739L3.54014 3.29646C3.81955 3.0813 4.12531 2.90275 4.44999 2.76513L4.65061 1.3406C4.66184 1.27679 4.69488 1.21886 4.74408 1.17671C4.79329 1.13456 4.8556 1.11081 4.92038 1.1095H7.07944C7.14304 1.11074 7.20434 1.1335 7.25333 1.17407C7.30233 1.21464 7.33612 1.27061 7.34921 1.33286L7.54983 2.75739C7.87582 2.89333 8.18219 3.07217 8.46084 3.28919L9.80147 2.75013C9.86145 2.7273 9.92756 2.72634 9.98817 2.74744C10.0488 2.76853 10.1 2.81031 10.1329 2.86544L11.2124 4.72919C11.2449 4.78486 11.2565 4.85026 11.2452 4.91372C11.234 4.97718 11.2005 5.03456 11.1508 5.0756L10.0096 5.96903C10.0339 6.14504 10.0468 6.32245 10.048 6.50013Z" fill="#718096"/>
</g>
<defs>
<clipPath id="clip0_1_993">
<rect width="12" height="12" fill="white" transform="translate(-6.10352e-05 0.500023)"/>
</clipPath>
</defs>
</svg>
