<svg width="11" height="12" viewBox="0 0 11 12" fill="none" xmlns="http://www.w3.org/2000/svg">
<path d="M5.49966 1.77832C3.03562 1.77832 1.03091 3.78303 1.03091 6.24707C1.03091 8.71111 3.03562 10.7158 5.49966 10.7158C7.9637 10.7158 9.96841 8.71111 9.96841 6.24707C9.96841 3.78303 7.9637 1.77832 5.49966 1.77832ZM4.42071 4.28812C4.69292 3.99959 5.07599 3.84082 5.49966 3.84082C5.92333 3.84082 6.30296 4.00066 6.57624 4.2907C6.85318 4.58461 6.98788 4.97949 6.95609 5.40402C6.89249 6.24707 6.23937 6.93457 5.49966 6.93457C4.75995 6.93457 4.10554 6.24707 4.04323 5.40381C4.01165 4.97584 4.14614 4.57967 4.42071 4.28812ZM5.49966 10.0283C4.99488 10.0287 4.49517 9.92762 4.03016 9.73121C3.56516 9.5348 3.14433 9.24702 2.79263 8.88492C2.99406 8.59767 3.25071 8.35343 3.54759 8.16648C4.09523 7.81543 4.78831 7.62207 5.49966 7.62207C6.21101 7.62207 6.90409 7.81543 7.45109 8.16648C7.74821 8.35335 8.00509 8.59759 8.20669 8.88492C7.85502 9.24706 7.4342 9.53487 6.96919 9.73128C6.50417 9.92769 6.00445 10.0287 5.49966 10.0283Z" fill="white"/>
</svg>
