<svg width="15" height="16" viewBox="0 0 15 16" fill="none" xmlns="http://www.w3.org/2000/svg">
<path d="M12.5392 7.06262H8.43762C8.06466 7.06262 7.70698 6.91446 7.44325 6.65074C7.17953 6.38702 7.03137 6.02933 7.03137 5.65637V1.55481C7.03137 1.52373 7.01903 1.49392 6.99705 1.47195C6.97507 1.44997 6.94526 1.43762 6.91418 1.43762H4.21887C3.72159 1.43762 3.24468 1.63517 2.89305 1.9868C2.54142 2.33843 2.34387 2.81534 2.34387 3.31262V12.6876C2.34387 13.1849 2.54142 13.6618 2.89305 14.0134C3.24468 14.3651 3.72159 14.5626 4.21887 14.5626H10.7814C11.2787 14.5626 11.7556 14.3651 12.1072 14.0134C12.4588 13.6618 12.6564 13.1849 12.6564 12.6876V7.17981C12.6564 7.14873 12.644 7.11892 12.622 7.09694C12.6001 7.07497 12.5703 7.06262 12.5392 7.06262Z" fill="#4FD1C5"/>
<path d="M12.2819 6.02597L8.06871 1.81278C8.06052 1.80464 8.0501 1.7991 8.03877 1.79686C8.02743 1.79462 8.01569 1.79578 8.00501 1.80019C7.99434 1.80461 7.98521 1.81208 7.97876 1.82167C7.97232 1.83126 7.96886 1.84254 7.96881 1.85409V5.65712C7.96881 5.78144 8.0182 5.90067 8.1061 5.98858C8.19401 6.07649 8.31324 6.12587 8.43756 6.12587H12.2406C12.2521 6.12582 12.2634 6.12236 12.273 6.11592C12.2826 6.10948 12.2901 6.10034 12.2945 6.08967C12.2989 6.07899 12.3001 6.06725 12.2978 6.05591C12.2956 6.04458 12.29 6.03416 12.2819 6.02597V6.02597Z" fill="#4FD1C5"/>
</svg>
