<svg width="12" height="12" viewBox="0 0 12 12" fill="none" xmlns="http://www.w3.org/2000/svg">
<path d="M5.18559 4.33959C5.18559 4.61889 5.18559 4.88959 5.27368 5.14311C4.3477 6.23021 1.90278 9.10267 1.67504 9.32182C1.62978 9.36243 1.59357 9.41211 1.56877 9.46763C1.54397 9.52315 1.53114 9.58327 1.5311 9.64408C1.5311 9.8267 1.64282 10.0029 1.73735 10.1017C1.87914 10.2499 2.485 10.8107 2.59672 10.7033C2.92758 10.381 2.99418 10.2951 3.12953 10.1619C3.33364 9.96205 3.10805 9.55385 3.17895 9.38842C3.24985 9.22299 3.32504 9.19076 3.4475 9.16498C3.56996 9.1392 3.78696 9.22728 3.95668 9.22943C4.135 9.23158 4.23168 9.15639 4.36489 9.03178C4.47231 8.93295 4.54965 8.84057 4.5518 8.69662C4.5561 8.50326 4.2768 8.2476 4.4852 8.0435C4.6936 7.83939 4.99438 8.1767 5.21567 8.15092C5.43696 8.12514 5.70551 7.81791 5.73344 7.68685C5.76137 7.5558 5.48207 7.21849 5.52504 7.02728C5.54008 6.96283 5.67114 6.81244 5.76996 6.79096C5.86879 6.76947 6.30707 6.9392 6.4059 6.91771C6.52621 6.89193 6.66586 6.76517 6.77973 6.69428C7.11274 6.83822 7.41567 6.89623 7.80453 6.89623C9.27621 6.89623 10.4686 5.74896 10.4686 4.33529C10.4686 2.92162 9.27621 1.7793 7.80453 1.7793C6.33285 1.7793 5.18559 2.92592 5.18559 4.33959ZM9.0936 3.8418C9.0936 3.97777 9.05328 4.11069 8.97773 4.22375C8.90219 4.33681 8.79482 4.42493 8.66919 4.47696C8.54357 4.529 8.40533 4.54261 8.27197 4.51609C8.13861 4.48956 8.01611 4.42408 7.91996 4.32793C7.82381 4.23178 7.75833 4.10928 7.73181 3.97592C7.70528 3.84256 7.71889 3.70433 7.77093 3.5787C7.82296 3.45308 7.91108 3.3457 8.02414 3.27016C8.1372 3.19462 8.27012 3.1543 8.4061 3.1543C8.58843 3.1543 8.7633 3.22673 8.89223 3.35566C9.02116 3.48459 9.0936 3.65946 9.0936 3.8418Z" fill="white"/>
</svg>
