<svg width="12" height="12" viewBox="0 0 12 12" fill="none" xmlns="http://www.w3.org/2000/svg">
<path d="M5.1862 4.33947C5.1862 4.61876 5.1862 4.88947 5.27429 5.14298C4.34831 6.23009 1.90339 9.10255 1.67565 9.32169C1.63039 9.3623 1.59418 9.41198 1.56938 9.46751C1.54458 9.52303 1.53175 9.58315 1.53171 9.64396C1.53171 9.82658 1.64343 10.0027 1.73796 10.1016C1.87975 10.2498 2.48561 10.8106 2.59733 10.7031C2.92819 10.3809 2.99479 10.2949 3.13015 10.1617C3.33425 9.96193 3.10866 9.55372 3.17956 9.38829C3.25046 9.22287 3.32565 9.19064 3.44811 9.16486C3.57057 9.13908 3.78757 9.22716 3.95729 9.22931C4.13561 9.23146 4.23229 9.15626 4.3655 9.03165C4.47292 8.93283 4.55026 8.84044 4.55241 8.6965C4.55671 8.50314 4.27741 8.24747 4.48581 8.04337C4.69421 7.83927 4.99499 8.17658 5.21628 8.15079C5.43757 8.12501 5.70612 7.81779 5.73405 7.68673C5.76198 7.55568 5.48268 7.21837 5.52565 7.02716C5.54069 6.96271 5.67175 6.81232 5.77057 6.79083C5.8694 6.76935 6.30768 6.93908 6.40651 6.91759C6.52682 6.89181 6.66647 6.76505 6.78034 6.69415C7.11335 6.8381 7.41628 6.89611 7.80514 6.89611C9.27682 6.89611 10.4692 5.74884 10.4692 4.33517C10.4692 2.9215 9.27682 1.77917 7.80514 1.77917C6.33347 1.77917 5.1862 2.9258 5.1862 4.33947ZM9.09421 3.84167C9.09421 3.97765 9.05389 4.11057 8.97834 4.22363C8.9028 4.33669 8.79543 4.42481 8.6698 4.47684C8.54418 4.52888 8.40594 4.54249 8.27258 4.51596C8.13922 4.48944 8.01672 4.42396 7.92057 4.32781C7.82442 4.23166 7.75894 4.10916 7.73242 3.9758C7.70589 3.84244 7.7195 3.7042 7.77154 3.57858C7.82358 3.45296 7.91169 3.34558 8.02475 3.27004C8.13781 3.1945 8.27073 3.15417 8.40671 3.15417C8.58904 3.15417 8.76391 3.22661 8.89284 3.35554C9.02177 3.48447 9.09421 3.65934 9.09421 3.84167Z" fill="#2D3748"/>
</svg>
