<svg width="11" height="12" viewBox="0 0 11 12" fill="none" xmlns="http://www.w3.org/2000/svg">
<path d="M5.50004 1.77832C3.036 1.77832 1.03129 3.78303 1.03129 6.24707C1.03129 8.71111 3.036 10.7158 5.50004 10.7158C7.96408 10.7158 9.96879 8.71111 9.96879 6.24707C9.96879 3.78303 7.96408 1.77832 5.50004 1.77832ZM4.4211 4.28812C4.6933 3.99959 5.07637 3.84082 5.50004 3.84082C5.92371 3.84082 6.30334 4.00066 6.57662 4.2907C6.85356 4.58461 6.98826 4.97949 6.95647 5.40402C6.89287 6.24707 6.23975 6.93457 5.50004 6.93457C4.76033 6.93457 4.10592 6.24707 4.04362 5.40381C4.01203 4.97584 4.14653 4.57967 4.4211 4.28812ZM5.50004 10.0283C4.99526 10.0287 4.49555 9.92762 4.03054 9.73121C3.56554 9.5348 3.14471 9.24702 2.79301 8.88492C2.99444 8.59767 3.25109 8.35343 3.54797 8.16648C4.09561 7.81543 4.78869 7.62207 5.50004 7.62207C6.21139 7.62207 6.90447 7.81543 7.45147 8.16648C7.74859 8.35335 8.00547 8.59759 8.20707 8.88492C7.8554 9.24706 7.43458 9.53487 6.96957 9.73128C6.50456 9.92769 6.00483 10.0287 5.50004 10.0283V10.0283Z" fill="#2D3748"/>
</svg>
