<svg width="20" height="21" viewBox="0 0 20 21" fill="none" xmlns="http://www.w3.org/2000/svg">
<g clip-path="url(#clip0_1_716)">
<path fill-rule="evenodd" clip-rule="evenodd" d="M7.3329 -0.000732422C6.22733 0.00010346 5.33257 0.917902 5.33339 2.04885C5.33257 3.1798 6.22814 4.0976 7.33372 4.09843H9.33404V2.04969C9.33486 0.918738 8.43929 0.000939342 7.3329 -0.000732422C7.33372 -0.000732422 7.33372 -0.000732422 7.3329 -0.000732422V-0.000732422ZM7.3329 5.46593H2.00033C0.894756 5.46677 -0.000814894 6.38457 2.23311e-06 7.51552C-0.00163202 8.64646 0.893939 9.56426 1.99951 9.56593H7.3329C8.43847 9.5651 9.33404 8.6473 9.33323 7.51635C9.33404 6.38457 8.43847 5.46677 7.3329 5.46593Z" fill="#36C5F0"/>
<path fill-rule="evenodd" clip-rule="evenodd" d="M20.0002 7.51625C20.0011 6.3853 19.1055 5.4675 17.9999 5.46667C16.8943 5.4675 15.9988 6.3853 15.9996 7.51625V9.56667H17.9999C19.1055 9.56583 20.0011 8.64803 20.0002 7.51625ZM14.6668 7.51625V2.04958C14.6677 0.91947 13.7729 0.00167176 12.6673 0C11.5617 0.000835882 10.6662 0.918634 10.667 2.04958V7.51625C10.6654 8.6472 11.5609 9.56499 12.6665 9.56667C13.7721 9.56583 14.6677 8.64803 14.6668 7.51625Z" fill="#2EB67D"/>
<path fill-rule="evenodd" clip-rule="evenodd" d="M12.6666 20.5C13.7722 20.4992 14.6677 19.5814 14.6669 18.4504C14.6677 17.3195 13.7722 16.4017 12.6666 16.4008H10.6663V18.4504C10.6654 19.5805 11.561 20.4983 12.6666 20.5ZM12.6666 15.0325H18C19.1055 15.0317 20.0011 14.1139 20.0003 12.9829C20.0019 11.852 19.1064 10.9342 18.0008 10.9325H12.6674C11.5618 10.9333 10.6663 11.8511 10.6671 12.9821C10.6663 14.1139 11.561 15.0317 12.6666 15.0325Z" fill="#ECB22E"/>
<path fill-rule="evenodd" clip-rule="evenodd" d="M0.000305735 12.9829C-0.000511392 14.1139 0.89506 15.0317 2.00063 15.0325C3.10621 15.0317 4.00178 14.1139 4.00096 12.9829V10.9333H2.00063C0.89506 10.9342 -0.000511392 11.852 0.000305735 12.9829ZM5.33369 12.9829V18.4496C5.33206 19.5806 6.22763 20.4984 7.3332 20.5C8.43878 20.4992 9.33435 19.5814 9.33353 18.4504V12.9846C9.33516 11.8537 8.43959 10.9359 7.33402 10.9342C6.22763 10.9342 5.33288 11.852 5.33369 12.9829C5.33369 12.9838 5.33369 12.9829 5.33369 12.9829Z" fill="#E01E5A"/>
</g>
<defs>
<clipPath id="clip0_1_716">
<rect width="20" height="20.5" fill="white" transform="translate(0.000244141 -0.000732422)"/>
</clipPath>
</defs>
</svg>
