<svg width="20" height="21" viewBox="0 0 20 21" fill="none" xmlns="http://www.w3.org/2000/svg">
<g clip-path="url(#clip0_1_691)">
<path d="M10.0003 0.5C4.47728 0.5 0.000305176 4.97697 0.000305176 10.5C0.000305176 16.023 4.47728 20.5 10.0003 20.5C15.5233 20.5 20.0003 16.023 20.0003 10.5C20.0003 4.97765 15.5233 0.500682 10.0003 0.5ZM14.5865 14.9224C14.407 15.2172 14.0228 15.3093 13.7294 15.1298C11.3814 13.6948 8.42542 13.3707 4.94469 14.1656C4.60897 14.2427 4.27461 14.0326 4.19819 13.6969C4.12108 13.3611 4.33057 13.0268 4.66697 12.9504C8.47591 12.0803 11.7437 12.455 14.3797 14.0653C14.6731 14.2462 14.7666 14.629 14.5865 14.9224ZM15.8099 12.2004C15.5841 12.5676 15.1037 12.6822 14.7373 12.457C12.0501 10.805 7.95186 10.3267 4.77274 11.2915C4.36059 11.4164 3.92525 11.1837 3.79969 10.7723C3.6755 10.3601 3.90819 9.92545 4.31965 9.7999C7.95118 8.69788 12.4664 9.23149 15.5527 11.1285C15.9198 11.3543 16.0358 11.834 15.8099 12.2004ZM15.915 9.36455C12.6915 7.45053 7.37458 7.27448 4.29713 8.20795C3.8031 8.35807 3.28041 8.07898 3.13098 7.58495C2.98154 7.09092 3.25994 6.56824 3.75466 6.41812C7.28724 5.34613 13.159 5.55288 16.8696 7.75554C17.3138 8.01962 17.4599 8.59348 17.1965 9.03702C16.9338 9.48192 16.3585 9.62862 15.915 9.36455Z" fill="#2EBD59"/>
</g>
<defs>
<clipPath id="clip0_1_691">
<rect width="20" height="20" fill="white" transform="translate(0.000305176 0.5)"/>
</clipPath>
</defs>
</svg>
