<svg width="15" height="16" viewBox="0 0 15 16" fill="none" xmlns="http://www.w3.org/2000/svg">
<g clip-path="url(#clip0_1_1052)">
<path d="M3.04687 15.0316H2.10937C1.92289 15.0316 1.74405 14.9575 1.61219 14.8257C1.48033 14.6938 1.40625 14.5149 1.40625 14.3285V10.1097C1.40625 9.92324 1.48033 9.7444 1.61219 9.61253C1.74405 9.48067 1.92289 9.40659 2.10937 9.40659H3.04687C3.23335 9.40659 3.4122 9.48067 3.54406 9.61253C3.67592 9.7444 3.75 9.92324 3.75 10.1097V14.3285C3.75 14.5149 3.67592 14.6938 3.54406 14.8257C3.4122 14.9575 3.23335 15.0316 3.04687 15.0316V15.0316Z" fill="#4FD1C5"/>
<path d="M9.60944 15.0308H8.67194C8.48546 15.0308 8.30661 14.9567 8.17475 14.8248C8.04289 14.693 7.96881 14.5141 7.96881 14.3277V7.2964C7.96881 7.10992 8.04289 6.93108 8.17475 6.79922C8.30661 6.66736 8.48546 6.59328 8.67194 6.59328H9.60944C9.79592 6.59328 9.97476 6.66736 10.1066 6.79922C10.2385 6.93108 10.3126 7.10992 10.3126 7.2964V14.3277C10.3126 14.5141 10.2385 14.693 10.1066 14.8248C9.97476 14.9567 9.79592 15.0308 9.60944 15.0308V15.0308Z" fill="#4FD1C5"/>
<path d="M12.8906 15.0311H11.9531C11.7666 15.0311 11.5878 14.9571 11.4559 14.8252C11.3241 14.6933 11.25 14.5145 11.25 14.328V4.01552C11.25 3.82904 11.3241 3.6502 11.4559 3.51833C11.5878 3.38647 11.7666 3.31239 11.9531 3.31239H12.8906C13.0771 3.31239 13.2559 3.38647 13.3878 3.51833C13.5197 3.6502 13.5937 3.82904 13.5937 4.01552V14.328C13.5937 14.5145 13.5197 14.6933 13.3878 14.8252C13.2559 14.9571 13.0771 15.0311 12.8906 15.0311V15.0311Z" fill="#4FD1C5"/>
<path d="M6.32812 15.031H5.39062C5.20414 15.031 5.0253 14.9569 4.89344 14.825C4.76158 14.6932 4.6875 14.5143 4.6875 14.3278V1.67159C4.6875 1.48511 4.76158 1.30627 4.89344 1.17441C5.0253 1.04255 5.20414 0.968468 5.39062 0.968468H6.32812C6.5146 0.968468 6.69345 1.04255 6.82531 1.17441C6.95717 1.30627 7.03125 1.48511 7.03125 1.67159V14.3278C7.03125 14.5143 6.95717 14.6932 6.82531 14.825C6.69345 14.9569 6.5146 15.031 6.32812 15.031V15.031Z" fill="#4FD1C5"/>
</g>
<defs>
<clipPath id="clip0_1_1052">
<rect width="15" height="15" fill="white" transform="translate(6.10352e-05 0.499969)"/>
</clipPath>
</defs>
</svg>
