<svg width="14" height="13" viewBox="0 0 14 13" fill="none" xmlns="http://www.w3.org/2000/svg">
<path d="M3.08148 2.78788H10.894C10.9852 2.78784 11.0764 2.79363 11.1669 2.80522C11.1362 2.58983 11.0623 2.38289 10.9494 2.19686C10.8366 2.01084 10.6873 1.8496 10.5105 1.72284C10.3336 1.59609 10.133 1.50646 9.92057 1.45936C9.70817 1.41226 9.48843 1.40866 9.2746 1.44877L2.84955 2.5457H2.84222C2.43892 2.62282 2.08028 2.851 1.83954 3.18363C2.20223 2.92566 2.6364 2.78731 3.08148 2.78788V2.78788Z" fill="white"/>
<path d="M10.894 3.37488H3.08154C2.66728 3.37533 2.27012 3.5401 1.97719 3.83302C1.68426 4.12595 1.5195 4.52312 1.51904 4.93738V9.62488C1.5195 10.0391 1.68426 10.4363 1.97719 10.7292C2.27012 11.0222 2.66728 11.1869 3.08154 11.1874H10.894C11.3083 11.1869 11.7055 11.0222 11.9984 10.7292C12.2913 10.4363 12.4561 10.0391 12.4565 9.62488V4.93738C12.4561 4.52312 12.2913 4.12595 11.9984 3.83302C11.7055 3.5401 11.3083 3.37533 10.894 3.37488V3.37488ZM9.73437 8.06238C9.57986 8.06238 9.42881 8.01656 9.30033 7.93071C9.17186 7.84487 9.07172 7.72285 9.01259 7.5801C8.95346 7.43734 8.93799 7.28026 8.96813 7.12871C8.99828 6.97716 9.07269 6.83796 9.18195 6.7287C9.29121 6.61944 9.43041 6.54503 9.58196 6.51489C9.73351 6.48474 9.89059 6.50022 10.0333 6.55935C10.1761 6.61848 10.2981 6.71861 10.384 6.84709C10.4698 6.97556 10.5156 7.12661 10.5156 7.28113C10.5156 7.48833 10.4333 7.68704 10.2868 7.83355C10.1403 7.98007 9.94157 8.06238 9.73437 8.06238Z" fill="white"/>
<path d="M1.53125 6.58411V4.15491C1.53125 3.62585 1.82422 2.73889 2.84106 2.54675C3.7041 2.38489 4.55859 2.38489 4.55859 2.38489C4.55859 2.38489 5.12012 2.77551 4.65625 2.77551C4.19238 2.77551 4.20459 3.37366 4.65625 3.37366C5.10791 3.37366 4.65625 3.94739 4.65625 3.94739L2.8374 6.01038L1.53125 6.58411Z" fill="white"/>
</svg>
