<svg width="23" height="23" viewBox="0 0 23 23" fill="none" xmlns="http://www.w3.org/2000/svg">
<path d="M4.44674 4.8181H18.5092C18.6735 4.81803 18.8376 4.82845 19.0005 4.8493C18.9453 4.46161 18.8121 4.08911 18.6091 3.75427C18.406 3.41943 18.1372 3.12919 17.8189 2.90104C17.5006 2.67288 17.1394 2.51155 16.7571 2.42676C16.3748 2.34198 15.9792 2.33549 15.5943 2.4077L4.02926 4.38217H4.01608C3.29013 4.52099 2.64457 4.93171 2.21124 5.53046C2.86409 5.0661 3.64559 4.81707 4.44674 4.8181Z" fill="white"/>
<path d="M18.5094 5.87477H4.4469C3.70123 5.87558 2.98633 6.17216 2.45906 6.69943C1.93179 7.2267 1.63521 7.9416 1.6344 8.68727V17.1248C1.63521 17.8704 1.93179 18.5853 2.45906 19.1126C2.98633 19.6399 3.70123 19.9364 4.4469 19.9373H18.5094C19.2551 19.9364 19.97 19.6399 20.4972 19.1126C21.0245 18.5853 21.3211 17.8704 21.3219 17.1248V8.68727C21.3211 7.9416 21.0245 7.2267 20.4972 6.69943C19.97 6.17216 19.2551 5.87558 18.5094 5.87477ZM16.422 14.3123C16.1439 14.3123 15.872 14.2298 15.6407 14.0753C15.4095 13.9207 15.2292 13.7011 15.1228 13.4442C15.0163 13.1872 14.9885 12.9045 15.0428 12.6317C15.097 12.3589 15.231 12.1083 15.4276 11.9116C15.6243 11.715 15.8749 11.581 16.1476 11.5268C16.4204 11.4725 16.7032 11.5004 16.9601 11.6068C17.2171 11.7132 17.4367 11.8935 17.5912 12.1247C17.7458 12.356 17.8282 12.6279 17.8282 12.906C17.8282 13.279 17.6801 13.6367 17.4164 13.9004C17.1526 14.1641 16.795 14.3123 16.422 14.3123Z" fill="white"/>
<path d="M1.65628 11.6513V7.27875C1.65628 6.32646 2.18362 4.72993 4.01395 4.38408C5.56741 4.09272 7.1055 4.09272 7.1055 4.09272C7.1055 4.09272 8.11624 4.79584 7.28128 4.79584C6.44632 4.79584 6.46829 5.8725 7.28128 5.8725C8.09427 5.8725 7.28128 6.90522 7.28128 6.90522L4.00735 10.6186L1.65628 11.6513Z" fill="white"/>
</svg>
