<svg width="17" height="17" viewBox="0 0 17 17" fill="none" xmlns="http://www.w3.org/2000/svg">
<path d="M1.5 12.2495C1.5 12.7136 1.68437 13.1588 2.01256 13.4869C2.34075 13.8151 2.78587 13.9995 3.25 13.9995H13.75C14.2141 13.9995 14.6592 13.8151 14.9874 13.4869C15.3156 13.1588 15.5 12.7136 15.5 12.2495V7.43701H1.5V12.2495ZM3.5625 9.87451C3.5625 9.62587 3.66127 9.38741 3.83709 9.2116C4.0129 9.03578 4.25136 8.93701 4.5 8.93701H6C6.24864 8.93701 6.4871 9.03578 6.66291 9.2116C6.83873 9.38741 6.9375 9.62587 6.9375 9.87451V10.4995C6.9375 10.7482 6.83873 10.9866 6.66291 11.1624C6.4871 11.3382 6.24864 11.437 6 11.437H4.5C4.25136 11.437 4.0129 11.3382 3.83709 11.1624C3.66127 10.9866 3.5625 10.7482 3.5625 10.4995V9.87451Z" fill="#F6AD55"/>
<path d="M13.75 2.99915H3.25C2.78587 2.99915 2.34075 3.18352 2.01256 3.51171C1.68437 3.8399 1.5 4.28502 1.5 4.74915V5.56164H15.5V4.74915C15.5 4.28502 15.3156 3.8399 14.9874 3.51171C14.6592 3.18352 14.2141 2.99915 13.75 2.99915Z" fill="#F6AD55"/>
</svg>
